<svg xmlns="http://www.w3.org/2000/svg" width="64" height="64" viewBox="0 0 64 64">
  <defs>
    <linearGradient id="g" x1="0" y1="0" x2="1" y2="1">
      <stop offset="0" stop-color="#4facfe"/>
      <stop offset="1" stop-color="#00f2fe"/>
    </linearGradient>
  </defs>
  <rect x="6" y="6" width="52" height="52" rx="16" fill="url(#g)"/>
  <path d="M20 40c0-9 7-16 16-16 2 0 4 .4 6 1.2-1.3-1.8-3.5-3.2-6.4-3.2-8.8 0-16 7.2-16 16 0 3.2 1.1 6.2 2.9 8.6-.2-.9-.5-2-.5-3z" fill="rgba(255,255,255,0.9)"/>
  <path d="M28 45c2 0 3-1 3-3 0-2-1-3-3-3h-2v6h2zm10 0c2 0 3-1 3-3 0-2-1-3-3-3h-4v6h4z" fill="rgba(255,255,255,0.92)"/>
  <circle cx="42" cy="22" r="4.2" fill="rgba(255,255,255,0.9)"/>
</svg>

